<svg xmlns="http://www.w3.org/2000/svg" width="111" height="86" viewBox="0 0 111 86" fill="none">
<path fill-rule="evenodd" clip-rule="evenodd" d="M64.7446 59.3746C66.0446 60.9767 68.9074 60.9349 69.4144 58.9351C70.1189 56.1558 70.4933 53.245 70.4933 50.2467C70.4933 30.7805 54.7128 15 35.2467 15C15.7805 15 0 30.7805 0 50.2467C0 69.7128 15.7805 85.4933 35.2467 85.4933C36.3536 85.4933 37.1503 84.4682 36.9431 83.3808L34.9997 73.1805C33.2522 64.0093 39.2705 55.158 48.4417 53.4105C54.7721 52.2044 60.9501 54.6981 64.7446 59.3746Z" fill="black"/>
<rect x="75.1562" y="44.4194" width="11.3699" height="42.0686" rx="5.68494" transform="rotate(-135 75.1562 44.4194)" fill="black"/>
<path d="M80 41.2238C80 46.5623 75.6722 50.8901 70.3337 50.8901H60.6674V41.2238C60.6674 35.8852 64.9951 31.5575 70.3337 31.5575C75.6722 31.5575 80 35.8852 80 41.2238Z" fill="#AAAAAA"/>
<circle cx="47.1834" cy="32.6228" r="7.39043" fill="#F2F2F2"/>
<circle cx="22.1717" cy="37.1717" r="7.39043" fill="#F2F2F2"/>
<circle cx="23.3084" cy="61.0502" r="7.39043" fill="#F2F2F2"/>
</svg>